<?xml version="1.0" encoding="utf-8"?>
<!-- Generator: Adobe Illustrator 27.9.0, SVG Export Plug-In . SVG Version: 6.00 Build 0)  -->
<svg version="1.1" id="Layer_1" xmlns="http://www.w3.org/2000/svg" xmlns:xlink="http://www.w3.org/1999/xlink" x="0px" y="0px"
	 viewBox="0 0 575 293" style="enable-background:new 0 0 575 293;" xml:space="preserve">
<style type="text/css">
	.st0{fill:#DB7E3A;}
	.st1{fill:#231F20;}
</style>
<g>
	<g>
		<path class="st0" d="M433.08,292.06H141.92V0.94h291.15V292.06z M144.14,289.83h286.71V3.17H144.14V289.83z"/>
	</g>
	<g>
		<path class="st1" d="M296.04,197.8v-5.39h19.37v4.74l-7.27,6.91c0.98,0.16,1.94,0.42,2.87,0.78c0.93,0.36,1.75,0.85,2.46,1.49
			c0.72,0.64,1.29,1.43,1.73,2.37c0.44,0.94,0.66,2.08,0.66,3.41c0,1.36-0.24,2.61-0.72,3.76c-0.48,1.15-1.16,2.14-2.06,2.98
			c-0.89,0.84-1.98,1.5-3.26,1.96c-1.28,0.46-2.72,0.69-4.3,0.69c-2.59,0-4.79-0.46-6.6-1.38c-1.81-0.92-3.33-2.12-4.56-3.6
			l4.33-4.13c0.98,1.11,2.01,1.97,3.09,2.55c1.07,0.59,2.35,0.88,3.82,0.88c1.2,0,2.17-0.31,2.92-0.94
			c0.75-0.62,1.12-1.48,1.12-2.57c0-1.19-0.49-2.1-1.45-2.73c-0.97-0.62-2.35-0.94-4.15-0.94h-2.62l-0.98-4l6.82-6.85H296.04z"/>
		<path class="st1" d="M344.89,212.51c-0.61,1.8-1.48,3.36-2.59,4.7c-1.11,1.34-2.46,2.39-4.02,3.15c-1.57,0.76-3.31,1.15-5.21,1.15
			c-1.91,0-3.64-0.37-5.21-1.12c-1.57-0.75-2.9-1.79-4-3.13c-1.11-1.33-1.96-2.89-2.56-4.68c-0.6-1.78-0.9-3.73-0.9-5.82
			c0-2.07,0.3-4.01,0.92-5.83c0.61-1.81,1.48-3.38,2.59-4.72c1.11-1.34,2.46-2.39,4.02-3.15c1.57-0.76,3.31-1.14,5.21-1.14
			c1.91,0,3.64,0.37,5.21,1.12c1.57,0.75,2.9,1.79,4,3.12c1.11,1.34,1.96,2.9,2.56,4.7c0.6,1.8,0.9,3.74,0.9,5.8
			C345.81,208.76,345.51,210.71,344.89,212.51z M338.91,203.11c-0.3-1.11-0.72-2.08-1.27-2.9c-0.55-0.82-1.21-1.46-1.98-1.92
			c-0.78-0.46-1.64-0.69-2.59-0.69c-0.95,0-1.81,0.23-2.58,0.67c-0.76,0.45-1.41,1.08-1.96,1.88c-0.55,0.8-0.96,1.76-1.25,2.88
			c-0.29,1.11-0.43,2.33-0.43,3.64c0,1.31,0.15,2.52,0.45,3.64c0.3,1.12,0.72,2.09,1.27,2.9c0.55,0.82,1.21,1.46,1.98,1.92
			c0.78,0.46,1.64,0.69,2.59,0.69c0.95,0,1.81-0.23,2.58-0.68c0.76-0.45,1.41-1.08,1.96-1.9c0.54-0.82,0.96-1.77,1.25-2.88
			c0.29-1.1,0.43-2.31,0.43-3.61C339.35,205.44,339.21,204.23,338.91,203.11z"/>
		<path class="st1" d="M374.72,212.51c-0.61,1.8-1.47,3.36-2.59,4.7c-1.11,1.34-2.46,2.39-4.02,3.15c-1.57,0.76-3.31,1.15-5.21,1.15
			c-1.91,0-3.64-0.37-5.21-1.12c-1.57-0.75-2.9-1.79-4-3.13c-1.11-1.33-1.96-2.89-2.56-4.68c-0.6-1.78-0.9-3.73-0.9-5.82
			c0-2.07,0.3-4.01,0.92-5.83c0.61-1.81,1.48-3.38,2.59-4.72c1.11-1.34,2.46-2.39,4.02-3.15c1.57-0.76,3.31-1.14,5.21-1.14
			c1.91,0,3.64,0.37,5.21,1.12c1.57,0.75,2.9,1.79,4,3.12c1.11,1.34,1.96,2.9,2.56,4.7c0.6,1.8,0.9,3.74,0.9,5.8
			C375.64,208.76,375.34,210.71,374.72,212.51z M368.74,203.11c-0.3-1.11-0.72-2.08-1.27-2.9c-0.55-0.82-1.21-1.46-1.98-1.92
			c-0.78-0.46-1.64-0.69-2.59-0.69c-0.95,0-1.81,0.23-2.58,0.67c-0.76,0.45-1.41,1.08-1.96,1.88c-0.55,0.8-0.96,1.76-1.25,2.88
			c-0.29,1.11-0.43,2.33-0.43,3.64c0,1.31,0.15,2.52,0.45,3.64c0.3,1.12,0.72,2.09,1.27,2.9c0.55,0.82,1.21,1.46,1.98,1.92
			c0.78,0.46,1.64,0.69,2.59,0.69c0.95,0,1.81-0.23,2.58-0.68c0.76-0.45,1.41-1.08,1.96-1.9c0.54-0.82,0.96-1.77,1.25-2.88
			c0.29-1.1,0.43-2.31,0.43-3.61C369.18,205.44,369.04,204.23,368.74,203.11z"/>
		<path class="st1" d="M406.37,221.01l-4.41-6.82l-4.42,6.82h-6.49l7.68-11.11l-7.39-10.79h6.66l4.09,6.38l4.13-6.38h6.5l-7.4,10.67
			l7.72,11.24H406.37z"/>
		<path class="st1" d="M261.22,246.83v-5.39h19.37v4.74l-7.27,6.91c0.98,0.16,1.94,0.42,2.87,0.78c0.93,0.36,1.75,0.85,2.46,1.49
			c0.72,0.64,1.29,1.43,1.73,2.37c0.44,0.94,0.66,2.08,0.66,3.41c0,1.36-0.24,2.61-0.72,3.76c-0.48,1.15-1.16,2.14-2.06,2.98
			c-0.89,0.84-1.98,1.5-3.26,1.96c-1.28,0.46-2.72,0.69-4.3,0.69c-2.59,0-4.79-0.46-6.6-1.38c-1.81-0.92-3.33-2.12-4.56-3.6
			l4.33-4.13c0.98,1.11,2.01,1.97,3.09,2.55c1.07,0.59,2.35,0.88,3.82,0.88c1.2,0,2.17-0.31,2.92-0.94
			c0.75-0.62,1.12-1.48,1.12-2.57c0-1.19-0.49-2.1-1.45-2.73c-0.97-0.62-2.35-0.94-4.15-0.94h-2.62l-0.98-4l6.82-6.85H261.22z"/>
		<path class="st1" d="M310.07,261.54c-0.61,1.8-1.48,3.36-2.59,4.7c-1.11,1.34-2.46,2.39-4.02,3.15c-1.57,0.76-3.31,1.15-5.21,1.15
			c-1.91,0-3.64-0.37-5.21-1.12c-1.57-0.75-2.9-1.79-4-3.13c-1.11-1.33-1.96-2.89-2.56-4.68c-0.6-1.78-0.9-3.73-0.9-5.82
			c0-2.07,0.3-4.01,0.92-5.83c0.61-1.81,1.48-3.38,2.59-4.72c1.11-1.34,2.46-2.39,4.02-3.15c1.57-0.76,3.31-1.14,5.21-1.14
			c1.91,0,3.64,0.37,5.21,1.12c1.57,0.75,2.9,1.79,4,3.12c1.11,1.34,1.96,2.9,2.56,4.7c0.6,1.8,0.9,3.74,0.9,5.8
			C310.99,257.8,310.69,259.74,310.07,261.54z M304.09,252.14c-0.3-1.11-0.72-2.08-1.27-2.9c-0.55-0.82-1.21-1.46-1.98-1.92
			c-0.78-0.46-1.64-0.69-2.59-0.69c-0.95,0-1.81,0.23-2.58,0.67c-0.76,0.45-1.41,1.08-1.96,1.88c-0.55,0.8-0.96,1.76-1.25,2.88
			c-0.29,1.11-0.43,2.33-0.43,3.64c0,1.31,0.15,2.52,0.45,3.64c0.3,1.12,0.72,2.09,1.27,2.9c0.55,0.82,1.21,1.46,1.98,1.92
			c0.78,0.46,1.64,0.69,2.59,0.69c0.95,0,1.81-0.23,2.58-0.68c0.76-0.45,1.41-1.08,1.96-1.9c0.54-0.82,0.96-1.77,1.25-2.88
			c0.29-1.1,0.43-2.31,0.43-3.61C304.54,254.47,304.39,253.26,304.09,252.14z"/>
		<path class="st1" d="M339.9,261.54c-0.61,1.8-1.47,3.36-2.59,4.7c-1.11,1.34-2.46,2.39-4.02,3.15c-1.57,0.76-3.31,1.15-5.21,1.15
			c-1.91,0-3.64-0.37-5.21-1.12c-1.57-0.75-2.9-1.79-4-3.13c-1.11-1.33-1.96-2.89-2.56-4.68c-0.6-1.78-0.9-3.73-0.9-5.82
			c0-2.07,0.3-4.01,0.92-5.83c0.61-1.81,1.48-3.38,2.59-4.72c1.11-1.34,2.46-2.39,4.02-3.15c1.57-0.76,3.31-1.14,5.21-1.14
			c1.91,0,3.64,0.37,5.21,1.12c1.57,0.75,2.9,1.79,4,3.12c1.11,1.34,1.96,2.9,2.56,4.7c0.6,1.8,0.9,3.74,0.9,5.8
			C340.82,257.8,340.52,259.74,339.9,261.54z M333.92,252.14c-0.3-1.11-0.72-2.08-1.27-2.9c-0.55-0.82-1.21-1.46-1.98-1.92
			s-1.64-0.69-2.59-0.69c-0.95,0-1.81,0.23-2.58,0.67c-0.76,0.45-1.41,1.08-1.96,1.88c-0.55,0.8-0.96,1.76-1.25,2.88
			c-0.29,1.11-0.43,2.33-0.43,3.64c0,1.31,0.15,2.52,0.45,3.64c0.3,1.12,0.72,2.09,1.27,2.9c0.55,0.82,1.21,1.46,1.98,1.92
			c0.78,0.46,1.64,0.69,2.59,0.69c0.95,0,1.81-0.23,2.58-0.68c0.76-0.45,1.41-1.08,1.96-1.9c0.54-0.82,0.96-1.77,1.25-2.88
			c0.29-1.1,0.43-2.31,0.43-3.61C334.37,254.47,334.22,253.26,333.92,252.14z"/>
		<path class="st1" d="M368.85,270.04v-18.68l-8.05,12.22h-0.16l-7.97-12.09v18.55h-6.21v-28.6h6.78l7.52,12.09l7.52-12.09h6.78
			v28.6H368.85z"/>
		<path class="st1" d="M404.32,270.04v-18.68l-8.05,12.22h-0.16l-7.97-12.09v18.55h-6.21v-28.6h6.78l7.52,12.09l7.52-12.09h6.78
			v28.6H404.32z"/>
	</g>
</g>
</svg>
